<svg viewBox="0 0 617 480" fill="none" xmlns="http://www.w3.org/2000/svg"><g clip-path="url(#a)"><path d="M95.31 344.709a20.01 20.01 0 0 1 22.268 2.473 20.003 20.003 0 0 1 4.879 6.179l14.747 28.407a20.121 20.121 0 0 1-8.653 27.124 20.168 20.168 0 0 1-27.153-8.665l-14.715-28.439a20.235 20.235 0 0 1 8.64-27.117M427.897 462.484a20.242 20.242 0 0 1 .274 15.384 20.24 20.24 0 0 1-10.625 11.128l-29.319 12.802a20.168 20.168 0 0 1-26.555-10.354 20.122 20.122 0 0 1-.327-15.407 20.126 20.126 0 0 1 10.672-11.118l29.338-12.795a20.01 20.01 0 0 1 15.437-.367 20.015 20.015 0 0 1 11.105 10.727Z" fill="#F49000"/><path d="m119.262 102.621 195.832 129.352a18.361 18.361 0 0 1 8.342 14.682 18.347 18.347 0 0 1-1.728 8.511 18.348 18.348 0 0 1-5.452 6.762c-47.332 37.54-114.469 40.446-166.269 6.216a141.232 141.232 0 0 1-54.698-68.04 140.971 140.971 0 0 1-4.212-87.142 18.541 18.541 0 0 1 20.025-13.346 18.575 18.575 0 0 1 8.121 2.991" fill="#58CC02"/><path d="M561.635 259.271a18.577 18.577 0 0 1 14.269 8.971 18.53 18.53 0 0 1 1.126 16.803 140.968 140.968 0 0 1-58.065 65.075 141.231 141.231 0 0 1-85.285 18.505c-61.797-5.997-112.144-50.507-125.303-109.468a18.342 18.342 0 0 1 3.978-16.385 18.367 18.367 0 0 1 15.685-6.217l233.595 22.716Z" fill="#58CC02"/><path d="M471.014 121.113a61.22 61.22 0 0 0-20.813-3c-43.58 2.727-71.589 1.702-86.192-3.207-14.438-5.375-36.851-22.206-69.003-51.75a61.169 61.169 0 0 0-18.374-10.877 52.84 52.84 0 0 0-40.249 2.177 52.72 52.72 0 0 0-26.964 29.918l-54.258 153.217a156.276 156.276 0 0 0 6.198 119.123 156.626 156.626 0 0 0 88.459 80.163 156.621 156.621 0 0 0 119.183-6.641 156.275 156.275 0 0 0 79.774-88.671l54.257-153.217a52.726 52.726 0 0 0-2.123-40.211 52.842 52.842 0 0 0-29.895-27.024Z" fill="#58CC02"/><path d="m337.595 350.792-36.933-13.078a3.098 3.098 0 0 0-2.72.319 3.098 3.098 0 0 0-1.398 2.353 23.282 23.282 0 0 0 4.525 13.466 23.324 23.324 0 0 0 11.511 8.339c9.894 3.503 20.738.679 26.574-6.782a2.995 2.995 0 0 0 .399-2.705 3.014 3.014 0 0 0-1.958-1.912Zm-63.171-18.24a2.986 2.986 0 0 0-1.519-4.668l-36.933-13.078a2.838 2.838 0 0 0-1.434-.298 2.831 2.831 0 0 0-1.392.454 2.837 2.837 0 0 0-1.292 2.516 23.28 23.28 0 0 0 4.523 13.53 23.318 23.318 0 0 0 11.57 8.36c9.817 3.411 20.647.691 26.477-6.816Zm19.677 38.085-36.933-13.078a2.986 2.986 0 0 0-4.118 2.671 23.278 23.278 0 0 0 4.523 13.53 23.326 23.326 0 0 0 11.57 8.361c9.874 3.497 20.704.776 26.477-6.816a2.991 2.991 0 0 0 .462-2.73 2.98 2.98 0 0 0-1.981-1.938ZM298.655 94.058l27.252 63.952a5.597 5.597 0 0 1-4.592 7.595 41.952 41.952 0 0 1-24.853-6.26 41.915 41.915 0 0 1-16.565-19.547 41.819 41.819 0 0 1 11.101-47.468c3.044-2.418 6.277-1.601 7.65 1.748" fill="#89E219"/><path d="m272.515 97.825 26.416 63.655a5.604 5.604 0 0 1-.426 4.928 5.616 5.616 0 0 1-1.772 1.818 5.615 5.615 0 0 1-2.394.849 41.947 41.947 0 0 1-24.803-6.273 41.917 41.917 0 0 1-16.538-19.51 41.82 41.82 0 0 1 10.997-47.414 5.32 5.32 0 0 1 7.027-.028 5.32 5.32 0 0 1 1.459 2.072" fill="#89E219"/><path d="m282.266 113.035 4.238 1.501a58.373 58.373 0 0 1 19.627 11.629 58.316 58.316 0 0 1 13.665 18.26 58.236 58.236 0 0 1 2.31 44.645l-12.59 35.552a58.195 58.195 0 0 1-11.625 19.602 58.245 58.245 0 0 1-18.266 13.641 58.33 58.33 0 0 1-44.683 2.276l-4.237-1.5a58.385 58.385 0 0 1-19.622-11.633 58.33 58.33 0 0 1-13.662-18.26 58.26 58.26 0 0 1-5.613-22.093 58.213 58.213 0 0 1 3.295-22.549l12.59-35.552a58.402 58.402 0 0 1 29.924-33.173 58.532 58.532 0 0 1 44.649-2.346ZM427.608 139.722c3.175-1.738 6.182-.345 7.045 3.457a41.815 41.815 0 0 1-21.234 43.903 41.914 41.914 0 0 1-25.185 4.769 41.95 41.95 0 0 1-23.261-10.786 5.609 5.609 0 0 1-1.559-4.696 5.591 5.591 0 0 1 2.769-4.097l61.425-32.55Z" fill="#89E219"/><path d="M445.553 159.101a5.326 5.326 0 0 1 7.881 3.753 41.81 41.81 0 0 1-3.554 25.365 41.83 41.83 0 0 1-17.679 18.538 41.94 41.94 0 0 1-48.447-6.018 5.598 5.598 0 0 1 1.21-8.792l60.589-32.846Z" fill="#89E219"/><path d="M428.403 164.784a58.533 58.533 0 0 1 33.223 29.922 58.404 58.404 0 0 1 2.379 44.612l-12.59 35.552a58.214 58.214 0 0 1-29.895 33.235 58.337 58.337 0 0 1-22.108 5.593 58.406 58.406 0 0 1-22.57-3.308l-4.238-1.501a58.373 58.373 0 0 1-19.627-11.629A58.327 58.327 0 0 1 339.312 279a58.204 58.204 0 0 1-2.309-44.646l12.589-35.552a58.19 58.19 0 0 1 11.626-19.602 58.246 58.246 0 0 1 18.266-13.64 58.361 58.361 0 0 1 44.682-2.277l4.237 1.501Z" fill="#89E219"/><path d="M377.661 166.175a41.413 41.413 0 0 1-32.764 2.208 41.424 41.424 0 0 1-24.073-22.335c-12.785 35.177-23.979 66.787-33.478 94.54l28.48 9.889 28.357 10.238c10.083-27.546 21.277-59.156 33.478-94.54Z" fill="#89E219"/><path d="M275.575 133.849a42.874 42.874 0 0 1 24.377 21.932 42.78 42.78 0 0 1 1.728 32.72l-8.595 24.271a42.801 42.801 0 0 1-22.047 23.67 42.893 42.893 0 0 1-32.337 1.505 42.894 42.894 0 0 1-24.183-21.52 42.796 42.796 0 0 1-2.237-32.27l8.594-24.271a42.608 42.608 0 0 1 21.914-24.407 42.72 42.72 0 0 1 32.786-1.63Z" fill="#fff"/><path d="M273.022 158.97a20.426 20.426 0 0 1 11.579 10.444 20.377 20.377 0 0 1 .826 15.56l-7.392 20.873a20.362 20.362 0 0 1-10.507 11.114 20.405 20.405 0 0 1-15.291.674 20.404 20.404 0 0 1-11.46-10.147 20.365 20.365 0 0 1-1.171-15.25l7.392-20.873a20.584 20.584 0 0 1 10.479-11.501 20.63 20.63 0 0 1 15.545-.894Z" fill="#4B4B4B"/><path d="M257.406 152.173a12.893 12.893 0 0 1 8.571 11.466 12.864 12.864 0 0 1-7.317 12.292 12.89 12.89 0 0 1-7.396 1.119 12.911 12.911 0 0 1-6.775-3.176 12.881 12.881 0 0 1-3.529-13.868 12.755 12.755 0 0 1 6.578-7.36 12.805 12.805 0 0 1 4.886-1.228 12.807 12.807 0 0 1 4.982.755ZM420.505 185.171a42.86 42.86 0 0 1 24.392 21.93 42.763 42.763 0 0 1 1.732 32.729l-8.595 24.271a42.796 42.796 0 0 1-22.046 23.67 42.893 42.893 0 0 1-32.337 1.505 42.893 42.893 0 0 1-24.184-21.52 42.796 42.796 0 0 1-2.237-32.27l8.595-24.27a42.59 42.59 0 0 1 21.9-24.411 42.688 42.688 0 0 1 32.78-1.634Z" fill="#fff"/><path d="M406.679 206.3a20.424 20.424 0 0 1 11.594 10.442 20.381 20.381 0 0 1 .83 15.569l-7.392 20.873a20.362 20.362 0 0 1-10.507 11.114 20.405 20.405 0 0 1-26.751-9.473 20.36 20.36 0 0 1-1.171-15.25l7.391-20.873a20.588 20.588 0 0 1 10.47-11.497 20.63 20.63 0 0 1 15.536-.905Z" fill="#4B4B4B"/><path d="M388.729 198.676a12.895 12.895 0 0 1 8.571 11.467 12.856 12.856 0 0 1-7.316 12.292 12.9 12.9 0 0 1-18.041-8.458 12.865 12.865 0 0 1 .34-7.467 12.792 12.792 0 0 1 16.446-7.834Z" fill="#fff"/><path d="M351.494 256.007c34.827-2.286 65.995-1.409 91.895 2.671 0 0-10.004 43.941-45.544 42.499-45.401-1.83-46.351-45.17-46.351-45.17Zm-131.178-17.696c-28.508-21.239-8.649-61.69-8.649-61.69 22.696 13.128 47.456 32.101 73.096 55.755 0 0-28.013 33.084-64.447 5.935Z" fill="#89E219"/><path d="M326.382 220.673a22.15 22.15 0 0 1 12.631 11.348 22.09 22.09 0 0 1 .867 16.944l-12.308 34.756a22.13 22.13 0 0 1-11.347 12.592 22.175 22.175 0 0 1-16.94.881 22.177 22.177 0 0 1-12.611-11.346 22.129 22.129 0 0 1-.894-16.926l12.287-34.698a22.482 22.482 0 0 1 11.399-12.524 22.53 22.53 0 0 1 16.916-1.027Z" fill="#F49000"/><path d="M323.459 228.925a17.081 17.081 0 0 1 9.713 8.739 17.045 17.045 0 0 1 .689 13.038l-8.196 23.144a17.036 17.036 0 0 1-8.736 9.707 17.054 17.054 0 0 1-13.052.671 17.265 17.265 0 0 1-9.645-8.772 17.23 17.23 0 0 1-.757-13.005l8.196-23.144a17.02 17.02 0 0 1 8.736-9.707 17.074 17.074 0 0 1 13.052-.671Z" fill="#B66E28"/><path d="m317.752 245.042 29.642 5.187a1.116 1.116 0 0 0 1.275-.882 31.008 31.008 0 0 0-3.884-20.86 31.077 31.077 0 0 0-37.623-13.323 31.008 31.008 0 0 0-16.146 13.767 1.116 1.116 0 0 0 .435 1.487l26.301 14.624Z" fill="#FFC200"/><path d="M330.128 230.48a4.3 4.3 0 0 1-1.105-.588 20.06 20.06 0 0 0-10.496-3.717 4.497 4.497 0 0 1-3.948-4.723 4.49 4.49 0 0 1 4.47-4.226 29.001 29.001 0 0 1 15.2 5.383 4.492 4.492 0 0 1 1.341 5.715 4.498 4.498 0 0 1-5.462 2.156Z" fill="#FFDE00"/></g><defs><clipPath id="a"><path fill="#fff" transform="rotate(19.5 63.52 381.07)" d="M0 0h515.523v391.983H0z"/></clipPath></defs></svg>