<svg viewBox="0 0 788 543" fill="none" xmlns="http://www.w3.org/2000/svg"><path d="M555.411 672.326c11.494 3.793 23.872-2.463 27.648-13.973 3.775-11.511-2.482-23.918-13.976-27.712-4.516-1.49-7.502-4.569-9.877-11.042-4.177-11.379-16.766-17.221-28.121-13.049-11.354 4.173-17.173 16.779-12.997 28.158 6.833 18.62 19.581 31.761 37.323 37.618ZM434.882 673.298c18.377-3.308 32.813-14.532 42.148-32.01 5.705-10.682 1.681-23.984-8.987-29.71-10.668-5.726-23.941-1.708-29.646 8.974-3.245 6.076-6.627 8.705-11.305 9.547-11.905 2.143-19.812 13.55-17.661 25.479 2.151 11.929 13.546 19.862 25.451 17.72Z" fill="#F49000"/><path d="M750.494 517.985 594.012 317.189c-8.387-10.763-24.783-10.21-32.379 1.092-36.499 54.301-34.095 127.225 7.248 180.275 41.342 53.05 111.339 73.031 172.723 50.663 12.776-4.656 17.278-20.471 8.89-31.234ZM221.22 339.26l249.739 48.158c13.386 2.581 20.323 17.447 13.699 29.359-31.822 57.234-97.858 88.26-163.839 75.537-65.98-12.723-115.493-66.031-123.387-130.923-1.643-13.506 10.402-24.712 23.788-22.131Z" fill="#58CC02"/><path fill-rule="evenodd" clip-rule="evenodd" d="M615.983 216.11c-72.329 9.478-118.74 12.585-139.234 9.323-11.707-1.864-23.116-8.787-34.226-20.769-21.415-23.097-57.499-24.46-80.596-3.045a57.026 57.026 0 0 0-17.559 32.943L317.642 404.16c-14.56 92.401 48.459 179.138 140.836 193.844 92.19 14.676 178.821-48.162 193.497-140.351l.042-.263 27.711-175.856c4.903-31.113-16.345-60.309-47.458-65.212a57.05 57.05 0 0 0-16.287-.212Z" fill="#58CC02"/><path fill-rule="evenodd" clip-rule="evenodd" d="M494.541 278.609c-16.706 13.339-39.556 7.044-49.408-8.022-15.335-22.907-23.246 6.554-23.733 88.382l69.341 11.039c13.67-69.825 14.937-100.292 3.8-91.399Z" fill="#8CE009"/><path fill-rule="evenodd" clip-rule="evenodd" d="m555.451 263.791-4.765-.759c-34.532-5.497-66.982 18.041-72.479 52.572l-.015.099-5.958 37.803c-5.436 34.502 18.095 66.89 52.588 72.381l4.765.758c34.532 5.497 66.982-18.04 72.479-52.572l.015-.098 5.958-37.804c5.436-34.501-18.094-66.889-52.588-72.38Z" fill="#8CE009"/><path d="m547.223 235.935-58.934 46.733c-3.102 2.514-2.851 7.325.496 9.502 16.08 10.459 37.394 9.406 52.682-2.985 15.288-12.392 20.748-33.041 13.87-50.958-1.431-3.73-5.012-4.806-8.114-2.292Z" fill="#8CE009"/><path d="m569.699 253.174-57.905 46.935c-3.104 2.516-2.854 7.329.493 9.505 16.083 10.457 37.406 9.396 52.705-3.004 15.298-12.4 20.768-33.056 13.893-50.976-1.431-3.73-6.082-4.975-9.186-2.46ZM410.975 211.951l30.425 53.308c1.578 2.851-.707 6.762-4.512 7.725-18.283 4.624-36.102-1.566-43.879-15.616-7.777-14.051-3.578-32.468 10.024-45.55 2.831-2.723 6.364-2.718 7.942.133Z" fill="#8CE009"/><path d="m388.256 220.225 29.456 53.218c1.579 2.853-.705 6.766-4.51 7.727-18.285 4.622-36.108-1.576-43.891-15.637-7.782-14.06-3.588-32.485 10.012-45.57 2.831-2.724 7.354-2.591 8.933.262Z" fill="#8CE009"/><path fill-rule="evenodd" clip-rule="evenodd" d="M404.868 239.999c-27.115-4.316-52.595 14.166-56.911 41.28a2.113 2.113 0 0 0-.013.078l-10.166 64.515c-4.282 27.177 14.252 52.688 41.422 57.013 27.115 4.316 52.595-14.165 56.911-41.28l.012-.077 10.167-64.516c4.282-27.176-14.253-52.687-41.422-57.013Z" fill="#8CE009"/><mask id="a" mask-type="alpha" maskUnits="userSpaceOnUse" x="356" y="264" width="82" height="121"><path d="M406.296 264.491c-20.295-3.214-39.353 10.632-42.567 30.927l-7.225 45.614c-3.214 20.295 10.632 39.353 30.927 42.567 20.295 3.215 39.353-10.632 42.567-30.927l7.225-45.613c3.214-20.295-10.632-39.353-30.927-42.568Z" fill="#fff"/></mask><g mask="url(#a)"><path d="M406.296 264.491c-20.295-3.214-39.353 10.632-42.567 30.927l-7.225 45.614c-3.214 20.295 10.632 39.353 30.927 42.567 20.295 3.215 39.353-10.632 42.567-30.927l7.225-45.613c3.214-20.295-10.632-39.353-30.927-42.568Z" fill="#fff"/><path fill-rule="evenodd" clip-rule="evenodd" d="M408.35 296.16c-9.809-1.73-19.162 4.819-20.892 14.628l-.001.001-5.644 32.017c-1.729 9.809 4.821 19.164 14.63 20.894 9.809 1.73 19.163-4.819 20.893-14.628v-.001l5.644-32.017c1.729-9.81-4.821-19.164-14.63-20.894Z" fill="#4B4B4B"/><path d="M419.712 324.702c-8.689-1.376-14.614-9.55-13.235-18.258 1.379-8.707 9.54-14.651 18.229-13.275 8.689 1.377 14.614 9.551 13.235 18.259-1.379 8.707-9.541 14.65-18.229 13.274Z" fill="#fff"/></g><path d="m497.012 476.775-42.359-4.468c-2.27-.239-4.1 1.692-3.613 3.814 2.337 10.194 11.425 18.022 22.616 19.203 11.191 1.18 21.702-4.581 26.1-14.065.916-1.974-.474-4.245-2.744-4.484ZM427.048 469.421l-42.359-4.467c-2.27-.24-4.1 1.691-3.613 3.813 2.338 10.195 11.426 18.023 22.617 19.203 11.191 1.181 21.702-4.581 26.1-14.065.915-1.974-.475-4.244-2.745-4.484ZM456.296 508.61l-42.359-4.468c-2.27-.239-4.1 1.692-3.614 3.814 2.338 10.194 11.426 18.022 22.617 19.203 11.191 1.18 21.702-4.581 26.1-14.065.916-1.974-.474-4.245-2.744-4.484Z" fill="#89E219"/><mask id="b" mask-type="alpha" maskUnits="userSpaceOnUse" x="482" y="278" width="112" height="136"><path d="M547.525 285.344c-25.337-4.033-49.146 13.237-53.18 38.574l-.011.072-4.487 28.475c-4.002 25.395 13.318 49.234 38.706 53.275 25.338 4.034 49.147-13.236 53.181-38.573l.011-.073 4.487-28.474c4.002-25.396-13.318-49.234-38.707-53.276Z" fill="#fff"/></mask><g mask="url(#b)"><path d="M547.526 285.347c-25.338-4.034-49.147 13.237-53.181 38.574l-.011.072-4.487 28.475c-4.002 25.395 13.318 49.234 38.707 53.275 25.337 4.034 49.147-13.236 53.18-38.573l.012-.073 4.487-28.474c4.001-25.396-13.318-49.234-38.707-53.276Z" fill="#fff"/><path fill-rule="evenodd" clip-rule="evenodd" d="M546.894 314.842c-11.884-1.891-23.051 6.208-24.943 18.092l-.005.034-3.852 24.444c-1.877 11.91 6.247 23.091 18.154 24.986 11.884 1.892 23.051-6.208 24.943-18.091a.398.398 0 0 1 .005-.034l3.852-24.444c1.877-11.91-6.247-23.091-18.154-24.987Z" fill="#4B4B4B"/><path d="M561.47 343.07c-8.536 2.128-17.184-3.081-19.317-11.635-2.133-8.554 3.058-17.214 11.593-19.342 8.536-2.129 17.184 3.081 19.317 11.635 2.133 8.554-3.058 17.214-11.593 19.342Z" fill="#fff"/></g><path fill-rule="evenodd" clip-rule="evenodd" d="m458.767 351.446-4.566-.642c-12.996-1.826-25.012 7.228-26.838 20.224l-5.287 37.614c-1.826 12.996 7.229 25.012 20.225 26.838l4.566.642c12.996 1.827 25.012-7.228 26.838-20.224l5.287-37.614c1.826-12.996-7.229-25.012-20.225-26.838Z" fill="#F49000"/><mask id="c" mask-type="alpha" maskUnits="userSpaceOnUse" x="426" y="349" width="46" height="75"><path d="M453.79 352.214c-9.962-1.4-19.173 5.541-20.573 15.503l-4.644 33.047c-1.4 9.962 5.541 19.173 15.503 20.573 9.962 1.401 19.173-5.54 20.573-15.503l4.645-33.047c1.4-9.962-5.541-19.173-15.504-20.573Z" fill="#fff"/></mask><g mask="url(#c)"><path d="M453.79 352.214c-9.962-1.4-19.173 5.541-20.573 15.503l-4.644 33.047c-1.4 9.962 5.541 19.173 15.503 20.573 9.962 1.401 19.173-5.54 20.573-15.503l4.645-33.047c1.4-9.962-5.541-19.173-15.504-20.573Z" fill="#CD7900"/><path fill-rule="evenodd" clip-rule="evenodd" d="M456.31 404.431c-10.498-1.475-20.205 5.839-21.681 16.337-1.475 10.499 5.839 20.205 16.338 21.681 10.498 1.475 20.205-5.839 21.68-16.337 1.476-10.499-5.839-20.206-16.337-21.681Z" fill="#FFAADE"/></g><path d="M481.096 379.332c-.383-16.024-12.564-29.626-28.882-31.92-16.318-2.293-31.777 7.425-36.562 22.722l-.329 1.05 15.386 7.834 50.414 1.414-.027-1.1Z" fill="#FFC200"/><path d="M455.182 363.286a4.744 4.744 0 0 0 6.361-2.148 4.759 4.759 0 0 0-2.14-6.373c-5.696-2.831-11.749-3.682-18.005-2.531a4.758 4.758 0 0 0-3.813 5.536 4.742 4.742 0 0 0 5.522 3.819c4.24-.781 8.214-.222 12.075 1.697Z" fill="#FFDE00"/></svg>